<?xml version="1.0" standalone="no"?>
<!DOCTYPE svg PUBLIC "-//W3C//DTD SVG 20010904//EN"
 "http://www.w3.org/TR/2001/REC-SVG-20010904/DTD/svg10.dtd">
<svg version="1.0" xmlns="http://www.w3.org/2000/svg"
 width="700.000000pt" height="700.000000pt" viewBox="0 0 700.000000 700.000000"
 preserveAspectRatio="xMidYMid meet">
<metadata>
Created by potrace 1.14, written by Peter Selinger 2001-2017
</metadata>
<g transform="translate(0.000000,700.000000) scale(0.100000,-0.100000)"
fill="#000000" stroke="none">
<path d="M2654 5929 c3 -17 13 -45 21 -64 21 -42 26 -145 10 -210 -24 -106
-90 -198 -177 -248 -75 -43 -78 -43 -198 15 l-110 53 -16 55 c-32 105 -8 234
63 343 15 24 16 29 3 37 -33 21 -134 -71 -181 -165 -33 -67 -40 -95 -43 -175
l-3 -55 -37 2 c-34 2 -37 1 -30 -20 3 -12 10 -27 15 -33 14 -17 1 -22 -34 -15
-18 4 -38 6 -44 5 -7 -1 -22 -2 -33 -3 -30 -2 -24 -17 17 -46 30 -20 33 -25
18 -26 -11 0 -29 -2 -39 -4 -79 -15 -85 -28 -26 -51 22 -9 40 -19 40 -23 0 -4
-19 -18 -42 -31 -93 -52 -241 -162 -346 -258 -40 -36 -42 -41 -36 -78 21 -132
89 -196 259 -243 250 -69 417 -192 471 -345 15 -40 20 -128 10 -173 -3 -16 1
-26 14 -33 15 -8 22 -4 40 26 13 19 30 56 40 82 10 25 22 48 28 50 19 6 49
-102 59 -215 3 -39 9 -76 13 -83 13 -21 36 1 60 61 22 56 25 60 38 43 29 -38
73 -146 112 -276 51 -172 107 -284 171 -342 27 -25 58 -47 68 -51 27 -8 38
-81 35 -220 -2 -124 -26 -232 -74 -334 -17 -35 -28 -67 -24 -70 3 -3 81 -6
174 -7 l169 -1 24 46 c46 86 86 237 89 340 2 52 3 53 20 29 44 -60 60 -78 67
-78 4 0 16 21 27 48 l20 47 17 -32 c23 -44 40 -41 62 7 l18 40 24 -40 c13 -22
28 -40 33 -40 4 0 18 12 29 28 11 15 21 21 21 14 0 -18 39 -72 50 -72 6 0 20
21 33 46 l23 46 18 -28 19 -27 18 24 c10 13 19 29 19 36 0 29 20 19 44 -22 15
-25 33 -45 40 -45 8 0 23 23 35 50 12 28 25 50 30 50 5 0 18 -16 30 -35 11
-19 24 -35 29 -35 5 0 20 23 33 50 13 28 26 50 29 50 3 -1 16 -23 29 -50 13
-28 27 -50 31 -50 10 0 33 30 55 73 l19 39 20 -41 c11 -23 25 -41 32 -41 7 0
21 18 32 41 22 43 21 44 57 -25 12 -22 26 -41 33 -44 6 -2 26 26 44 62 l32 65
24 -39 c13 -22 27 -40 31 -40 4 0 17 19 28 42 l22 42 13 -30 c7 -16 18 -35 25
-42 7 -7 13 -18 13 -23 0 -5 6 -9 13 -9 8 0 24 22 37 50 13 27 26 50 29 50 3
0 15 -17 26 -37 11 -20 25 -38 31 -40 6 -2 19 15 29 37 10 22 21 40 25 40 4 0
13 -13 20 -30 16 -39 26 -38 48 6 l18 35 14 -28 c21 -40 52 -83 62 -83 4 0 17
17 28 38 l21 37 -5 -105 c-2 -58 -7 -117 -10 -131 -13 -60 -50 -167 -72 -211
-30 -59 -37 -56 170 -55 l159 2 23 45 c59 115 92 273 88 418 -2 80 0 93 13 88
8 -3 33 -9 55 -12 l40 -7 -7 34 c-3 19 -9 42 -11 52 -7 22 2 22 33 -3 14 -11
30 -17 35 -14 11 7 3 131 -12 184 -5 19 -10 36 -10 38 0 2 17 -10 37 -27 20
-16 39 -28 43 -26 14 9 -2 139 -26 208 l-14 42 24 -30 c14 -16 25 -33 26 -37
0 -5 6 -8 14 -8 11 0 13 15 10 73 -31 591 -279 1013 -672 1141 -66 22 -194 42
-252 40 -50 -1 -208 -13 -255 -19 -147 -18 -426 -24 -564 -13 -224 19 -296 47
-546 214 -167 112 -251 156 -332 175 -50 12 -177 14 -193 4 -16 -10 -12 5 10
35 37 52 70 140 76 201 10 111 -31 238 -104 317 -48 52 -77 57 -68 11z m-653
-740 c27 -14 39 -49 26 -76 -6 -13 -13 -23 -16 -23 -3 0 -16 -3 -28 -6 -25 -7
-63 26 -63 56 0 21 33 60 51 60 6 0 19 -5 30 -11z"/>
<path d="M1626 2052 c-3 -5 40 -89 95 -188 55 -98 115 -206 133 -239 65 -119
100 -181 118 -210 16 -26 18 -54 18 -233 l0 -203 82 3 83 3 0 201 c0 132 4
206 11 215 6 8 29 48 52 89 22 41 99 181 171 309 72 129 131 241 131 248 0 10
-22 13 -88 13 -86 0 -89 -1 -103 -27 -8 -15 -61 -113 -119 -218 -58 -105 -111
-202 -119 -217 -8 -15 -17 -25 -22 -23 -6 5 -41 65 -114 200 -96 176 -151 271
-160 277 -14 11 -163 10 -169 0z"/>
<path d="M2877 2043 c-3 -10 -32 -97 -65 -193 -34 -96 -97 -281 -142 -410
-124 -358 -150 -437 -150 -448 0 -6 34 -9 83 -8 l82 1 44 130 c24 72 45 132
47 134 3 3 312 5 371 2 18 -1 26 -15 49 -83 15 -46 35 -107 46 -136 l20 -52
66 1 c110 1 106 -9 55 142 -25 73 -106 309 -179 525 -74 217 -136 398 -139
403 -4 5 -46 9 -94 9 -76 0 -89 -3 -94 -17z m167 -428 c36 -104 63 -191 61
-194 -4 -8 -252 -7 -260 1 -6 6 25 102 121 377 2 8 7 12 9 9 3 -3 34 -90 69
-193z"/>
<path d="M3662 1523 l3 -538 78 -1 c72 -2 77 -1 78 20 0 11 1 106 1 210 l0
189 34 36 34 36 23 -26 c30 -36 40 -48 135 -171 46 -59 88 -113 95 -120 7 -7
24 -29 37 -48 14 -19 32 -44 42 -55 9 -11 25 -31 36 -45 19 -23 26 -25 116
-26 53 0 96 4 96 9 0 7 -163 223 -180 237 -3 3 -17 21 -30 40 -13 19 -27 37
-30 40 -3 3 -37 46 -75 95 -38 50 -72 92 -75 95 -3 3 -20 24 -39 48 l-33 44
28 30 c16 17 56 59 89 93 258 267 315 328 315 336 0 5 -46 9 -102 9 l-103 1
-207 -213 -206 -212 1 209 0 210 -82 3 -81 3 2 -538z"/>
<path d="M4697 2053 c-2 -5 -3 -246 -3 -538 l1 -530 343 -3 343 -2 -3 82 -3
82 -260 0 -260 0 0 148 0 148 262 0 263 0 0 80 0 80 -262 2 -263 3 -1 135 c0
74 2 140 4 146 2 8 77 12 258 12 140 0 257 1 259 3 3 4 8 104 6 142 -1 16 -24
17 -340 17 -187 0 -342 -3 -344 -7z"/>
</g>
</svg>
